<svg xmlns="http://www.w3.org/2000/svg" data-name="Layer 1" viewBox="0 0 100 100" x="0px" y="0px"><title>Artboard 29</title><path fill="snow" d="M74.37,10.61a35.44,35.44,0,0,0-26.9-9.52A35.73,35.73,0,0,0,29.36,65.91a2.54,2.54,0,0,1,1.12,2V81a9.79,9.79,0,0,0,8.34,9.66v3.85A4.47,4.47,0,0,0,43.29,99H56.71a4.47,4.47,0,0,0,4.47-4.47V90.68A9.79,9.79,0,0,0,69.51,81V67.95a2.51,2.51,0,0,1,1.09-2,35.73,35.73,0,0,0,3.77-55.31ZM65,57.93a12.32,12.32,0,0,0-5.23,10v3.66H40.27V68a12.34,12.34,0,0,0-5.25-10A25.77,25.77,0,0,1,24.2,34,26.1,26.1,0,0,1,48.15,10.86q.94-.06,1.86-.06A25.94,25.94,0,0,1,75.94,36.73,26,26,0,0,1,65,57.93ZM61.42,33.78a4,4,0,0,1,0,3.61L52.19,55.07A3.45,3.45,0,0,1,45.68,53L47,44.71l-5.15-.24-.45,0a4,4,0,0,1-2.9-5.69L47.8,21.06a3.46,3.46,0,0,1,6.52,2.08L53,31.42l5.16.24.44,0A4,4,0,0,1,61.42,33.78Z"></path></svg>